<svg id="Layer_2" xmlns="http://www.w3.org/2000/svg" viewBox="0 0 228.3 185.5"><defs><style>.cls-1{fill:#fff;stroke-width:0px;}</style></defs><g id="Layer_1-2"><path class="cls-1" d="M116.7,18.2l34.2-.5L116.6,0l-4.7,9.2,1.9,3.5,2.9,5.5ZM170.8,169.4h0l9.5-18.3h0l-3.8.1-39.9.6,34.2,17.6ZM178.9,32.2l1.5,114.9v3.7l23-44.7,21-40.8h0l3.9-7.6-14.3-7.4h0l-35.1-18.1h0ZM176,126.8l-3.3,1.8-34.8,19.1,38.4-.6-.3-20.3h0ZM133.5,48.7h0l40.9,74.4,1.5,2.8.2.4-1.2-89.8-.2-15-55.8.7,14.6,26.5ZM87.4,22.7l-38.5.5.3,20.5,38.2-21ZM170.8,125.1l-33.9-61.6-18.7-34-8-14.6-14.1,7.7h0l-36.5,20.1L0,75.3l60.5,110.2,68.7-37.7,35-19.1,6.6-3.6ZM137.3,105.3c-.6.4-1.3.6-2,.7-3,.6-6.1-.7-7.6-3.5l-12-21.6c-2.8-5-9.1-6.8-14.2-4.1-5,2.8-6.8,9.1-4.1,14.2h0l12,21.6c.2.3.3.7.4,1,0,.1.1.2.1.4.1.2.1.4.2.6,0,.2.1.3.1.5s0,.3.1.5v1c-.1,1.1-.4,2.3-1,3.2-.3.4-.6.8-.9,1.2-.5.5-1,.9-1.7,1.3-3.4,1.9-7.7.7-9.6-2.8h0l-12-21.6h0c-2.8-5-9.1-6.8-14.2-4.1-5,2.8-6.8,9.1-4.1,14.1h0l12,21.6c1.2,2.1,1.1,4.6.1,6.7h0c-.1.2-.2.4-.3.6-.1.2-.3.4-.4.5h0c-.1.2-.3.3-.4.5h0c-.1.1-.3.3-.4.4l-.1.1c-.2.1-.3.3-.5.4l-.1.1c-.2.1-.3.2-.5.3h-.1c-3.4,1.9-7.7.7-9.6-2.8h0l-12.1-21.4h0c-.2-.4-.5-.8-.8-1.2-.1-.1-.1-.2-.2-.3-.3-.4-.6-.7-.9-1h0c-.3-.3-.7-.6-1.1-.9-.1-.1-.2-.1-.2-.2-3.2-2.2-7.4-2.5-10.9-.5-3.4,1.9-7.7.7-9.6-2.8h0c-1.9-3.4-.7-7.7,2.8-9.6h0c5.2-2.9,11-3.7,16.5-2.6.4.1.8.2,1.2.3h0c.4.1.8.2,1.2.3,1.7-6.1,5.8-11.6,11.8-14.9,6-3.3,12.8-3.9,18.9-2.1,1.7-6.1,5.8-11.6,11.8-14.9,6-3.3,12.9-3.9,19-2,.3.1.5.2.8.3.5.2.9.3,1.4.5.3.1.5.3.8.4.4.2.9.4,1.3.6.2.1.5.3.7.4.4.2.9.5,1.3.8h0c.3.2.5.4.8.6.4.3.7.5,1.1.8h0c.2.2.4.3.6.5.4.3.8.7,1.2,1h0c.2.2.3.3.5.5.4.4.8.8,1.1,1.2h0c.5.6,1,1.2,1.4,1.9h0c.5.7.9,1.4,1.3,2.1l12,21.6h0c1.7,3.4.5,7.7-2.9,9.6Z"/></g></svg>